<svg width="30" height="30" viewBox="0 0 30 30" fill="none" xmlns="http://www.w3.org/2000/svg">
<path d="M4.30664 1.64063C3.95508 1.85547 3.51074 2.30957 2.97363 3.00293C2.43652 3.69629 1.94336 4.46289 1.49414 5.30274C0.791016 6.68946 0.366211 7.75879 0.219727 8.51075C0.0732422 9.2627 0 10.8008 0 13.125C0 15.2734 0.0683594 16.7773 0.205078 17.6367C0.341797 18.4961 0.683594 19.4922 1.23047 20.625C1.54297 21.3281 1.91406 22.0459 2.34375 22.7783C2.77344 23.5107 3.11523 24.0234 3.36914 24.3164C4.05273 25.1758 4.45801 25.3955 4.58496 24.9756C4.71191 24.5557 4.43359 23.8867 3.75 22.9688C2.59766 21.4258 1.80664 19.5703 1.37695 17.4023C0.947266 15.2539 0.834961 13.1397 1.04004 11.0596C1.24512 8.9795 1.75781 7.11914 2.57812 5.47852C3.37891 3.83789 4.45312 2.76368 5.80078 2.25586C6.54297 2.00196 7.36328 2.0459 8.26172 2.3877C9.16016 2.7295 9.58984 3.16407 9.55078 3.69141C9.55078 3.90625 9.42871 4.34082 9.18457 4.99512C8.94043 5.64942 8.64258 6.32813 8.29102 7.03125C7.7832 8.06641 7.36328 8.76465 7.03125 9.12598C6.69922 9.48731 6.2793 9.69727 5.77148 9.75586C5.24414 9.81446 4.87305 9.96094 4.6582 10.1953C4.44336 10.4297 4.27734 10.8789 4.16016 11.543C3.96484 12.6563 3.96484 13.833 4.16016 15.0732C4.35547 16.3135 4.74609 17.5977 5.33203 18.9258C5.78125 19.9805 6.12305 20.6006 6.35742 20.7861C6.5918 20.9717 7.03125 20.9961 7.67578 20.8594C8.30078 20.7422 8.82324 20.7813 9.24316 20.9766C9.66309 21.1719 10.3125 21.6992 11.1914 22.5586C12.5586 23.7891 13.2812 24.79 13.3594 25.5615C13.4375 26.333 12.8906 26.9531 11.7188 27.4219C11.1328 27.6758 10.625 27.8174 10.1953 27.8467C9.76562 27.876 9.31641 27.8125 8.84766 27.6563C8.08594 27.3438 7.58789 27.2803 7.35352 27.4658C7.11914 27.6514 7.30469 27.9688 7.91016 28.418C8.47656 28.8281 9.15039 29.0234 9.93164 29.0039C10.7129 28.9648 11.4648 28.7891 12.1875 28.4766C12.9102 28.1641 13.5156 27.7246 14.0039 27.1582C14.5117 26.5918 14.7656 25.9766 14.7656 25.3125C14.7656 25.1758 14.5312 24.7998 14.0625 24.1846C13.5938 23.5693 13.0273 22.9102 12.3633 22.207C11.3672 21.1914 10.6152 20.5176 10.1074 20.1856C9.59961 19.8535 9.02344 19.6875 8.37891 19.6875C7.5 19.6875 6.875 19.4482 6.50391 18.9697C6.13281 18.4912 5.76172 17.4316 5.39062 15.791C5.07812 14.3652 5.01953 13.1836 5.21484 12.2461C5.41016 11.3086 5.83008 10.791 6.47461 10.6934C7.06055 10.6152 7.71484 10.0781 8.4375 9.08204C9.16016 8.08594 9.80469 6.83594 10.3711 5.33204C10.7617 4.31641 10.9521 3.667 10.9424 3.38379C10.9326 3.10059 10.6934 2.73438 10.2246 2.28516C9.58008 1.66016 8.64258 1.2793 7.41211 1.14258C6.18164 1.00586 5.14648 1.17188 4.30664 1.64063ZM12.1875 7.58789C11.5039 8.23243 11.0205 8.83301 10.7373 9.38965C10.4541 9.94629 10.2148 10.8008 10.0195 11.9531C9.60938 14.375 9.46289 15.7666 9.58008 16.1279C9.69727 16.4893 10.4102 16.7969 11.7188 17.0508C12.3828 17.168 13.1641 17.2754 14.0625 17.3731C14.9609 17.4707 15.7129 17.5195 16.3184 17.5195C17.3535 17.5586 18.0762 17.4805 18.4863 17.2852C18.8965 17.0898 19.4727 16.6113 20.2148 15.8496C20.8398 15.1465 21.2598 14.5459 21.4746 14.0479C21.6895 13.5498 21.7969 12.9102 21.7969 12.1289C21.7969 11.6211 21.7236 11.0498 21.5771 10.415C21.4307 9.78028 21.25 9.27735 21.0352 8.90625C20.5078 8.00782 19.7803 7.31446 18.8525 6.82618C17.9248 6.33789 16.8945 6.09375 15.7617 6.09375C14.9805 6.09375 14.3457 6.19629 13.8574 6.40137C13.3691 6.60645 12.8125 7.00196 12.1875 7.58789ZM19.2773 8.4961C19.8828 9.04297 20.3027 9.67774 20.5371 10.4004C20.752 11.1035 20.8008 11.8115 20.6836 12.5244C20.5664 13.2373 20.2832 13.916 19.834 14.5606C19.3652 15.1856 18.75 15.7031 17.9883 16.1133C17.2461 16.5234 16.6699 16.7481 16.2598 16.7871C15.8496 16.8262 15.2539 16.7285 14.4727 16.4941C13.9648 16.3574 13.4375 16.2109 12.8906 16.0547C12.3438 15.8984 11.9336 15.7813 11.6602 15.7031C11.2305 15.5859 10.9668 15.3906 10.8691 15.1172C10.7715 14.8438 10.7715 14.209 10.8691 13.2129C11.0059 11.8848 11.3428 10.7227 11.8799 9.72657C12.417 8.73047 13.0859 8.01758 13.8867 7.58789C14.6289 7.19727 15.542 7.08985 16.626 7.26563C17.71 7.44141 18.5938 7.85157 19.2773 8.4961ZM13.3594 12.1875C13.3594 12.3047 13.4082 12.4121 13.5059 12.5098C13.6035 12.6074 13.7109 12.6563 13.8281 12.6563C13.9648 12.6563 14.0771 12.6074 14.165 12.5098C14.2529 12.4121 14.2969 12.3047 14.2969 12.1875C14.2969 12.0508 14.2529 11.9385 14.165 11.8506C14.0771 11.7627 13.9648 11.7188 13.8281 11.7188C13.7109 11.7188 13.6035 11.7627 13.5059 11.8506C13.4082 11.9385 13.3594 12.0508 13.3594 12.1875ZM15.7031 12.1875C15.7031 12.3047 15.752 12.4121 15.8496 12.5098C15.9473 12.6074 16.0547 12.6563 16.1719 12.6563C16.3086 12.6563 16.4209 12.6074 16.5088 12.5098C16.5967 12.4121 16.6406 12.3047 16.6406 12.1875C16.6406 12.0508 16.5967 11.9385 16.5088 11.8506C16.4209 11.7627 16.3086 11.7188 16.1719 11.7188C16.0547 11.7188 15.9473 11.7627 15.8496 11.8506C15.752 11.9385 15.7031 12.0508 15.7031 12.1875ZM18.0469 12.2461C18.0469 12.3633 18.0957 12.4414 18.1934 12.4805C18.291 12.5195 18.3984 12.5 18.5156 12.4219C18.6523 12.3438 18.7646 12.2559 18.8525 12.1582C18.9404 12.0606 18.9844 11.9727 18.9844 11.8945C18.9844 11.8555 18.9404 11.8164 18.8525 11.7773C18.7646 11.7383 18.6523 11.7188 18.5156 11.7188C18.3984 11.7188 18.291 11.7676 18.1934 11.8652C18.0957 11.9629 18.0469 12.0898 18.0469 12.2461ZM5.39062 26.25C5.39062 26.3672 5.43945 26.4746 5.53711 26.5723C5.63477 26.6699 5.74219 26.7188 5.85938 26.7188C5.99609 26.7188 6.1084 26.6699 6.19629 26.5723C6.28418 26.4746 6.32812 26.3672 6.32812 26.25C6.32812 26.1133 6.28418 26.001 6.19629 25.9131C6.1084 25.8252 5.99609 25.7813 5.85938 25.7813C5.74219 25.7813 5.63477 25.8252 5.53711 25.9131C5.43945 26.001 5.39062 26.1133 5.39062 26.25Z" fill="#32B57A"/>
</svg>
